<?xml version="1.0" encoding="UTF-8"?>
<svg id="Layer_1" data-name="Layer 1" xmlns="http://www.w3.org/2000/svg" version="1.1" viewBox="0 0 1600 1600">
  <defs>
    <style>
      .cls-1 {
        fill: #2e415c;
      }

      .cls-1, .cls-2 {
        stroke-width: 0px;
      }

      .cls-2 {
        fill: #00afab;
      }
    </style>
  </defs>
  <path class="cls-1" d="M465.49,764.94c155.04,0,247.53-88.09,247.53-251.06V154.47h-151.51v359.41c0,74.88-37,115.4-91.61,115.4s-94.26-29.95-97.78-88.09h-147.99c6.17,143.59,101.3,223.75,241.37,223.75Z"/>
  <path class="cls-1" d="M984.34,154.47l-254.58,599.01h158.56l39.64-103.07h253.7l40.52,103.07h158.56l-253.7-599.01h-142.71ZM976.41,526.21l78.4-201.73,78.4,201.73h-156.8Z"/>
  <polygon class="cls-2" points="617.01 1094.76 373 1094.76 373 854.27 224.13 854.27 224.13 1453.28 373 1453.28 373 1228.65 617.01 1228.65 617.01 1453.28 765 1453.28 765 854.27 617.01 854.27 617.01 1094.76"/>
  <polygon class="cls-2" points="899.57 1453.28 1352.36 1453.28 1352.36 1323.79 1048.45 1323.79 1048.45 1219.84 1314.48 1219.84 1314.48 1093 1048.45 1093 1048.45 983.76 1352.36 983.76 1352.36 854.27 899.57 854.27 899.57 1453.28"/>
</svg>