<?xml version="1.0" encoding="UTF-8"?>
<svg id="Layer_1" data-name="Layer 1" xmlns="http://www.w3.org/2000/svg" version="1.1" viewBox="0 0 757.6 362.7">
  <defs>
    <style>
      .cls-1 {
        fill: #2d415c;
      }

      .cls-1, .cls-2 {
        stroke-width: 0px;
      }

      .cls-2 {
        fill: #00afab;
      }
    </style>
  </defs>
  <g>
    <path class="cls-1" d="M126,96.2c0,40.8-23.2,62.9-62,62.9S5,139,3.5,103h37.1c.9,14.6,10.8,22.1,24.5,22.1s22.9-10.2,22.9-28.9V6.1h38v90.1Z"/>
    <path class="cls-1" d="M243.4,130.4h-63.6l-9.9,25.8h-39.7L193.9,6.1h35.8l63.6,150.1h-39.7l-10.1-25.8h0ZM231.2,99.3l-19.6-50.5-19.6,50.5h39.3,0Z"/>
    <path class="cls-1" d="M471.1,156.2h-37.3v-75.3l-33.3,51.4v.2h-20.8v-.2l-33.5-51.9.2,75.7h-37.3V6.1h27.8l53.2,80.1L443.3,6.1h27.8v150.1h0Z"/>
    <path class="cls-1" d="M534.9,38.6v27.4h66.7v31.8h-66.7v26h76.1v32.4h-113.4V6.1h113.4v32.4s-76.1,0-76.1,0Z"/>
    <path class="cls-1" d="M754.8,52.7h-37.5c-2-11.3-8.8-19-24.7-19s-21.8,5.1-21.8,14.8,6.2,12.4,18.1,14.8l21,4.4c27.6,5.7,45.2,17,45.2,42.8s-24.7,48.5-62.2,48.5-64.2-16.1-67.8-53.2h37.5c2.4,13.2,13.7,21.6,31.3,21.6s21.2-5.1,21.2-13.5-2.9-10.8-15.9-13.2l-24.7-5.3c-29.6-6.4-43.5-19.9-43.5-43.7s24.3-48.5,59.6-48.5,60.5,9.1,64.2,49.4h0Z"/>
  </g>
  <g>
    <path class="cls-2" d="M170.2,209.6v150.1h-37.1v-56.3h-61.1v56.3h-37.3v-150.1h37.3v60.2h61.1v-60.2h37.1Z"/>
    <path class="cls-2" d="M234,242.1v27.4h66.6v31.8h-66.6v26h76.1v32.4h-113.4v-150.1h113.4v32.4h-76.1Z"/>
    <path class="cls-2" d="M434,333.9h-63.6l-9.9,25.8h-39.7l63.8-150.1h35.8l63.6,150.1h-39.7l-10.1-25.8h0ZM421.8,302.8l-19.6-50.5-19.6,50.5h39.3,0Z"/>
    <path class="cls-2" d="M611.2,326.4v33.3h-111.5v-150.1h37.3v116.7h74.2,0Z"/>
    <path class="cls-2" d="M742.1,209.6l-59.2,104.8v45.2h-37.5v-45.2l-59.4-104.8h41.3l36.6,65.3,36.9-65.3h41.3Z"/>
  </g>
</svg>