<?xml version="1.0" encoding="UTF-8"?>
<svg id="Layer_1" data-name="Layer 1" xmlns="http://www.w3.org/2000/svg" version="1.1" viewBox="0 0 757.58 362.71">
  <defs>
    <style>
      .cls-1 {
        fill: #00afab;
        stroke-width: 0px;
      }
    </style>
  </defs>
  <g>
    <path class="cls-1" d="M125.96,96.19c0,40.83-23.17,62.9-62.02,62.9-35.09,0-58.93-20.08-60.47-56.06h37.08c.88,14.57,10.81,22.07,24.5,22.07s22.95-10.15,22.95-28.91V6.14h37.96v90.05Z"/>
    <path class="cls-1" d="M243.38,130.39h-63.56l-9.93,25.82h-39.73L193.94,6.14h35.75l63.56,150.08h-39.73l-10.15-25.82ZM231.24,99.28l-19.64-50.54-19.64,50.54h39.29Z"/>
    <path class="cls-1" d="M471.14,156.22h-37.3v-75.26l-33.33,51.42v.22h-20.75v-.22l-33.55-51.87.22,75.7h-37.3V6.14h27.81l53.19,80.12L443.33,6.14h27.81v150.08Z"/>
    <path class="cls-1" d="M534.93,38.58v27.37h66.65v31.78h-66.65v26.04h76.14v32.44h-113.44V6.14h113.44v32.44h-76.14Z"/>
    <path class="cls-1" d="M754.75,52.71h-37.52c-1.99-11.26-8.83-18.98-24.72-18.98-13.24,0-21.85,5.08-21.85,14.79,0,8.61,6.18,12.36,18.1,14.79l20.97,4.41c27.59,5.74,45.24,16.99,45.24,42.82,0,30.02-24.72,48.55-62.24,48.55-33.77,0-64.22-16.11-67.76-53.19h37.52c2.43,13.24,13.68,21.63,31.34,21.63,13.24,0,21.19-5.08,21.19-13.46,0-5.3-2.87-10.81-15.89-13.24l-24.72-5.3c-29.57-6.4-43.48-19.86-43.48-43.7,0-30.02,24.28-48.55,59.59-48.55,24.28,0,60.47,9.05,64.22,49.44Z"/>
  </g>
  <g>
    <path class="cls-1" d="M170.21,209.62v150.08h-37.08v-56.28h-61.13v56.28h-37.3v-150.08h37.3v60.25h61.13v-60.25h37.08Z"/>
    <path class="cls-1" d="M234,242.06v27.37h66.65v31.78h-66.65v26.04h76.14v32.44h-113.44v-150.08h113.44v32.44h-76.14Z"/>
    <path class="cls-1" d="M433.96,333.87h-63.56l-9.93,25.82h-39.73l63.78-150.08h35.75l63.56,150.08h-39.73l-10.15-25.82ZM421.82,302.75l-19.64-50.54-19.64,50.54h39.29Z"/>
    <path class="cls-1" d="M611.18,326.37v33.33h-111.46v-150.08h37.3v116.75h74.16Z"/>
    <path class="cls-1" d="M742.06,209.62l-59.15,104.83v45.24h-37.52v-45.24l-59.37-104.83h41.27l36.64,65.33,36.86-65.33h41.27Z"/>
  </g>
</svg>